<svg xmlns="http://www.w3.org/2000/svg" width="1700" height="1000" viewBox="0 0 1700 1000" font-family="ui-monospace, Consolas, monospace"><rect width="1700" height="1000" fill="#0b0e13"/>
<line x1="46.0" y1="860.0" x2="1534.0" y2="860.0" stroke="#1e2733" stroke-width="1"/>
<text x="38.8" y="863.0" font-size="9" text-anchor="end" fill="#3b4a5c" font-family="ui-monospace, Consolas, monospace">z=-2.0U</text>
<line x1="46.0" y1="740.0" x2="1534.0" y2="740.0" stroke="#1e2733" stroke-width="1"/>
<text x="38.8" y="743.0" font-size="9" text-anchor="end" fill="#3b4a5c" font-family="ui-monospace, Consolas, monospace">z=-1.5U</text>
<line x1="46.0" y1="620.0" x2="1534.0" y2="620.0" stroke="#1e2733" stroke-width="1"/>
<text x="38.8" y="623.0" font-size="9" text-anchor="end" fill="#3b4a5c" font-family="ui-monospace, Consolas, monospace">z=-1.0U</text>
<line x1="46.0" y1="500.0" x2="1534.0" y2="500.0" stroke="#1e2733" stroke-width="1"/>
<text x="38.8" y="503.0" font-size="9" text-anchor="end" fill="#3b4a5c" font-family="ui-monospace, Consolas, monospace">z=-0.5U</text>
<line x1="46.0" y1="380.0" x2="1534.0" y2="380.0" stroke="#2a3644" stroke-width="1"/>
<text x="38.8" y="383.0" font-size="9" text-anchor="end" fill="#3b4a5c" font-family="ui-monospace, Consolas, monospace">z=+0.0U</text>
<line x1="46.0" y1="260.0" x2="1534.0" y2="260.0" stroke="#1e2733" stroke-width="1"/>
<text x="38.8" y="263.0" font-size="9" text-anchor="end" fill="#3b4a5c" font-family="ui-monospace, Consolas, monospace">z=+0.5U</text>
<line x1="70.0" y1="212.0" x2="70.0" y2="932.0" stroke="#1e2733" stroke-width="1"/>
<text x="70.0" y="946.4" font-size="9" text-anchor="middle" fill="#3b4a5c" font-family="ui-monospace, Consolas, monospace">-3.0U</text>
<line x1="190.0" y1="212.0" x2="190.0" y2="932.0" stroke="#1e2733" stroke-width="1"/>
<text x="190.0" y="946.4" font-size="9" text-anchor="middle" fill="#3b4a5c" font-family="ui-monospace, Consolas, monospace">-2.5U</text>
<line x1="310.0" y1="212.0" x2="310.0" y2="932.0" stroke="#1e2733" stroke-width="1"/>
<text x="310.0" y="946.4" font-size="9" text-anchor="middle" fill="#3b4a5c" font-family="ui-monospace, Consolas, monospace">-2.0U</text>
<line x1="430.0" y1="212.0" x2="430.0" y2="932.0" stroke="#1e2733" stroke-width="1"/>
<text x="430.0" y="946.4" font-size="9" text-anchor="middle" fill="#3b4a5c" font-family="ui-monospace, Consolas, monospace">-1.5U</text>
<line x1="550.0" y1="212.0" x2="550.0" y2="932.0" stroke="#1e2733" stroke-width="1"/>
<text x="550.0" y="946.4" font-size="9" text-anchor="middle" fill="#3b4a5c" font-family="ui-monospace, Consolas, monospace">-1.0U</text>
<line x1="670.0" y1="212.0" x2="670.0" y2="932.0" stroke="#1e2733" stroke-width="1"/>
<text x="670.0" y="946.4" font-size="9" text-anchor="middle" fill="#3b4a5c" font-family="ui-monospace, Consolas, monospace">-0.5U</text>
<line x1="790.0" y1="212.0" x2="790.0" y2="932.0" stroke="#1e2733" stroke-width="1"/>
<text x="790.0" y="946.4" font-size="9" text-anchor="middle" fill="#3b4a5c" font-family="ui-monospace, Consolas, monospace">+0.0U</text>
<line x1="910.0" y1="212.0" x2="910.0" y2="932.0" stroke="#1e2733" stroke-width="1"/>
<text x="910.0" y="946.4" font-size="9" text-anchor="middle" fill="#3b4a5c" font-family="ui-monospace, Consolas, monospace">+0.5U</text>
<line x1="1030.0" y1="212.0" x2="1030.0" y2="932.0" stroke="#1e2733" stroke-width="1"/>
<text x="1030.0" y="946.4" font-size="9" text-anchor="middle" fill="#3b4a5c" font-family="ui-monospace, Consolas, monospace">+1.0U</text>
<line x1="1150.0" y1="212.0" x2="1150.0" y2="932.0" stroke="#1e2733" stroke-width="1"/>
<text x="1150.0" y="946.4" font-size="9" text-anchor="middle" fill="#3b4a5c" font-family="ui-monospace, Consolas, monospace">+1.5U</text>
<line x1="1270.0" y1="212.0" x2="1270.0" y2="932.0" stroke="#1e2733" stroke-width="1"/>
<text x="1270.0" y="946.4" font-size="9" text-anchor="middle" fill="#3b4a5c" font-family="ui-monospace, Consolas, monospace">+2.0U</text>
<line x1="1390.0" y1="212.0" x2="1390.0" y2="932.0" stroke="#1e2733" stroke-width="1"/>
<text x="1390.0" y="946.4" font-size="9" text-anchor="middle" fill="#3b4a5c" font-family="ui-monospace, Consolas, monospace">+2.5U</text>
<line x1="1510.0" y1="212.0" x2="1510.0" y2="932.0" stroke="#1e2733" stroke-width="1"/>
<text x="1510.0" y="946.4" font-size="9" text-anchor="middle" fill="#3b4a5c" font-family="ui-monospace, Consolas, monospace">+3.0U</text>
<rect x="58.0" y="309.9" width="1464.0" height="26.9" fill="#ffffff" fill-opacity="0.025" stroke="#2f3d4f" stroke-dasharray="3,6"/>
<text x="1524.4" y="326.4" font-size="9" text-anchor="start" fill="#6b7c93" font-family="ui-monospace, Consolas, monospace">V+3 Dome cap (upper lens)</text>
<rect x="58.0" y="351.2" width="1464.0" height="21.6" fill="#ffffff" fill-opacity="0.025" stroke="#2f3d4f" stroke-dasharray="3,6"/>
<text x="1524.4" y="365.0" font-size="9" text-anchor="start" fill="#6b7c93" font-family="ui-monospace, Consolas, monospace">V+2 Hover / elevated circulation band</text>
<rect x="58.0" y="312.8" width="1464.0" height="67.2" fill="#ffffff" fill-opacity="0.025" stroke="#2f3d4f" stroke-dasharray="3,6"/>
<text x="1524.4" y="349.4" font-size="9" text-anchor="start" fill="#6b7c93" font-family="ui-monospace, Consolas, monospace">V+1 Surface city building volume</text>
<rect x="58.0" y="380.0" width="1464.0" height="1.0" fill="#ffffff" fill-opacity="0.025" stroke="#2f3d4f" stroke-dasharray="3,6"/>
<text x="1524.4" y="383.0" font-size="9" text-anchor="start" fill="#6b7c93" font-family="ui-monospace, Consolas, monospace">V0 Main deck (equatorial plane)</text>
<rect x="58.0" y="382.4" width="1464.0" height="21.6" fill="#ffffff" fill-opacity="0.025" stroke="#2f3d4f" stroke-dasharray="3,6"/>
<text x="1524.4" y="396.2" font-size="9" text-anchor="start" fill="#6b7c93" font-family="ui-monospace, Consolas, monospace">V-1 Sub-decks inside the lower hull</text>
<rect x="58.0" y="404.0" width="1464.0" height="28.8" fill="#ffffff" fill-opacity="0.025" stroke="#2f3d4f" stroke-dasharray="3,6"/>
<text x="1524.4" y="421.4" font-size="9" text-anchor="start" fill="#6b7c93" font-family="ui-monospace, Consolas, monospace">V-2 Under-hub upper (portal-fluid production)</text>
<rect x="58.0" y="432.8" width="1464.0" height="91.2" fill="#ffffff" fill-opacity="0.025" stroke="#2f3d4f" stroke-dasharray="3,6"/>
<text x="1524.4" y="481.4" font-size="9" text-anchor="start" fill="#6b7c93" font-family="ui-monospace, Consolas, monospace">V-3 Under-hub lower + fin roots (Dimensional Drive, launch)</text>
<rect x="58.0" y="524.0" width="1464.0" height="367.2" fill="#ffffff" fill-opacity="0.025" stroke="#2f3d4f" stroke-dasharray="3,6"/>
<text x="1524.4" y="710.6" font-size="9" text-anchor="start" fill="#6b7c93" font-family="ui-monospace, Consolas, monospace">V-4 Spike and fins</text>
<text x="30" y="40" font-size="22" fill="#fff" font-weight="bold">SECTION_B — Section B-B — urban shell and lower machinery (X=0 plane)</text>
<text x="30" y="62" font-size="12" fill="#8a97a8">Horizontal axis = Y (U). Vertical axis = Z (U). Section: interior nodes shown, vertical bands labelled at right.</text>
<path d="M 550.0,380.0 A 240.0 24.0 0 0 0 1030.0,380.0" stroke="#7a7f8a" stroke-width="2.6" stroke-opacity="1.0" fill="#7a7f8a" fill-opacity="0.12"/>
<text x="790.0" y="372.8" font-size="9" text-anchor="middle" fill="#7a7f8a" font-family="ui-monospace, Consolas, monospace">SHELL-DRUM</text>
<polygon points="679.6,404.0 900.4,404.0 845.2,466.4 734.8,466.4" stroke="#7a7f8a" stroke-width="1.8" stroke-opacity="0.9" fill="#7a7f8a" fill-opacity="0.12"/>
<text x="790.0" y="476.0" font-size="9" text-anchor="middle" fill="#7a7f8a" font-family="ui-monospace, Consolas, monospace">SHELL-UNDERHUB</text>
<rect x="841.6" y="471.2" width="57.6" height="340.8" stroke="#7a7f8a" stroke-width="1.8" stroke-opacity="0.9" fill="#7a7f8a" fill-opacity="0.12"/>
<text x="870.4" y="465.2" font-size="9" text-anchor="middle" fill="#7a7f8a" font-family="ui-monospace, Consolas, monospace">KEEL-FIN-1</text>
<rect x="891.3" y="471.2" width="57.6" height="340.8" stroke="#7a7f8a" stroke-width="1.8" stroke-opacity="0.9" fill="#7a7f8a" fill-opacity="0.12"/>
<text x="920.1" y="465.2" font-size="9" text-anchor="middle" fill="#7a7f8a" font-family="ui-monospace, Consolas, monospace">KEEL-FIN-2</text>
<rect x="761.2" y="471.2" width="57.6" height="340.8" stroke="#7a7f8a" stroke-width="1.8" stroke-opacity="0.9" fill="#7a7f8a" fill-opacity="0.12"/>
<text x="790.0" y="465.2" font-size="9" text-anchor="middle" fill="#7a7f8a" font-family="ui-monospace, Consolas, monospace">KEEL-FIN-3</text>
<rect x="631.1" y="471.2" width="57.6" height="340.8" stroke="#7a7f8a" stroke-width="1.8" stroke-opacity="0.9" fill="#7a7f8a" fill-opacity="0.12"/>
<text x="659.9" y="465.2" font-size="9" text-anchor="middle" fill="#7a7f8a" font-family="ui-monospace, Consolas, monospace">KEEL-FIN-4</text>
<rect x="680.8" y="471.2" width="57.6" height="340.8" stroke="#7a7f8a" stroke-width="1.8" stroke-opacity="0.9" fill="#7a7f8a" fill-opacity="0.12"/>
<text x="709.6" y="465.2" font-size="9" text-anchor="middle" fill="#7a7f8a" font-family="ui-monospace, Consolas, monospace">KEEL-FIN-5</text>
<polygon points="744.4,466.4 835.6,466.4 796.2,891.2 783.8,891.2" stroke="#7a7f8a" stroke-width="1.8" stroke-opacity="0.9" fill="#7a7f8a" fill-opacity="0.12"/>
<text x="790.0" y="900.8" font-size="9" text-anchor="middle" fill="#7a7f8a" font-family="ui-monospace, Consolas, monospace">SHELL-LOWER-BODY</text>

<line x1="782.8" y1="716.0" x2="797.2" y2="716.0" stroke="#7a7f8a" stroke-width="1.8" stroke-opacity="0.9" fill="none"/>
<text x="794.3" y="725.6" font-size="9" text-anchor="middle" fill="#7a7f8a" font-family="ui-monospace, Consolas, monospace">SHELL-UNDERSIDE</text>
<polyline points="790.0,380.0 790.0,380.0 790.0,380.0" stroke="#7a7f8a" stroke-width="2.6" stroke-opacity="1.0" fill="none"/>
<text x="790.0" y="372.8" font-size="9" text-anchor="middle" fill="#7a7f8a" font-family="ui-monospace, Consolas, monospace">ARM-S1</text>
<polyline points="977.0,380.0 1070.6,380.0 1158.6,380.0" stroke="#7a7f8a" stroke-width="2.6" stroke-opacity="1.0" fill="none"/>
<text x="1158.6" y="372.8" font-size="9" text-anchor="middle" fill="#7a7f8a" font-family="ui-monospace, Consolas, monospace">ARM-S2</text>
<polyline points="603.0,380.0 509.4,380.0 421.4,380.0" stroke="#7a7f8a" stroke-width="2.6" stroke-opacity="1.0" fill="none"/>
<text x="421.4" y="372.8" font-size="9" text-anchor="middle" fill="#7a7f8a" font-family="ui-monospace, Consolas, monospace">ARM-MB</text>
<path d="M 550.0,380.0 A 240.0 70.1 0 0 1 1030.0,380.0" stroke="#5bc0eb" stroke-width="2.6" stroke-opacity="1.0" fill="#5bc0eb" fill-opacity="0.12"/>
<text x="790.0" y="302.7" font-size="9" text-anchor="middle" fill="#5bc0eb" font-family="ui-monospace, Consolas, monospace">DOME-P</text>
<path d="M 647.9,380.0 A 142.1 44.6 0 0 1 932.1,380.0" stroke="#5bc0eb" stroke-width="2.6" stroke-opacity="1.0" fill="#5bc0eb" fill-opacity="0.12"/>
<path d="M 647.9,380.0 A 142.1 24.0 0 0 0 932.1,380.0" stroke="#5bc0eb" stroke-width="2.6" stroke-opacity="1.0" fill="#5bc0eb" fill-opacity="0.12"/>
<text x="790.0" y="328.2" font-size="9" text-anchor="middle" fill="#5bc0eb" font-family="ui-monospace, Consolas, monospace">DOME-S1</text>
<path d="M 1129.4,380.0 A 142.1 44.6 0 0 1 1413.5,380.0" stroke="#5bc0eb" stroke-width="2.6" stroke-opacity="1.0" fill="#5bc0eb" fill-opacity="0.12"/>
<path d="M 1129.4,380.0 A 142.1 24.0 0 0 0 1413.5,380.0" stroke="#5bc0eb" stroke-width="2.6" stroke-opacity="1.0" fill="#5bc0eb" fill-opacity="0.12"/>
<text x="1271.4" y="328.2" font-size="9" text-anchor="middle" fill="#5bc0eb" font-family="ui-monospace, Consolas, monospace">DOME-S2</text>
<path d="M 166.5,380.0 A 142.1 44.6 0 0 1 450.6,380.0" stroke="#5bc0eb" stroke-width="2.6" stroke-opacity="1.0" fill="#5bc0eb" fill-opacity="0.12"/>
<path d="M 166.5,380.0 A 142.1 24.0 0 0 0 450.6,380.0" stroke="#5bc0eb" stroke-width="2.6" stroke-opacity="1.0" fill="#5bc0eb" fill-opacity="0.12"/>
<text x="308.6" y="328.2" font-size="9" text-anchor="middle" fill="#5bc0eb" font-family="ui-monospace, Consolas, monospace">DOME-MB</text>
<path d="M 742.0,310.9 A 401.4 401.4 0 0 1 838.0,310.9" stroke="#5bc0eb" stroke-width="1.8" stroke-opacity="0.9" fill="#5bc0eb" fill-opacity="0.12"/>
<text x="790.0" y="300.8" font-size="9" text-anchor="middle" fill="#5bc0eb" font-family="ui-monospace, Consolas, monospace">DOME-P-HUB</text>
<path d="M 761.2,336.1 A 217.0 217.0 0 0 1 818.8,336.1" stroke="#5bc0eb" stroke-width="1.8" stroke-opacity="0.9" fill="#5bc0eb" fill-opacity="0.12"/>
<text x="790.0" y="327.0" font-size="9" text-anchor="middle" fill="#5bc0eb" font-family="ui-monospace, Consolas, monospace">DOME-S1-HUB</text>
<path d="M 1242.6,336.1 A 217.0 217.0 0 0 1 1300.2,336.1" stroke="#5bc0eb" stroke-width="1.8" stroke-opacity="0.9" fill="#5bc0eb" fill-opacity="0.12"/>
<text x="1271.4" y="327.0" font-size="9" text-anchor="middle" fill="#5bc0eb" font-family="ui-monospace, Consolas, monospace">DOME-S2-HUB</text>
<path d="M 279.8,336.1 A 217.0 217.0 0 0 1 337.4,336.1" stroke="#5bc0eb" stroke-width="1.8" stroke-opacity="0.9" fill="#5bc0eb" fill-opacity="0.12"/>
<text x="308.6" y="327.0" font-size="9" text-anchor="middle" fill="#5bc0eb" font-family="ui-monospace, Consolas, monospace">DOME-MB-HUB</text>
<line x1="718.0" y1="380.0" x2="862.0" y2="380.0" stroke="#f5b942" stroke-width="1.6" stroke-opacity="0.8" stroke-dasharray="8,5" fill="none"/>
<text x="847.6" y="375.2" font-size="9" text-anchor="middle" fill="#f5b942" font-family="ui-monospace, Consolas, monospace">CIRC-RING-1</text>
<line x1="646.0" y1="380.0" x2="934.0" y2="380.0" stroke="#f5b942" stroke-width="1.6" stroke-opacity="0.8" stroke-dasharray="8,5" fill="none"/>
<text x="905.2" y="375.2" font-size="9" text-anchor="middle" fill="#f5b942" font-family="ui-monospace, Consolas, monospace">CIRC-RING-2</text>
<line x1="574.0" y1="380.0" x2="1006.0" y2="380.0" stroke="#f5b942" stroke-width="1.6" stroke-opacity="0.8" stroke-dasharray="8,5" fill="none"/>
<text x="962.8" y="375.2" font-size="9" text-anchor="middle" fill="#f5b942" font-family="ui-monospace, Consolas, monospace">CIRC-RING-3</text>

<line x1="617.2" y1="368.0" x2="962.8" y2="368.0" stroke="#f5b942" stroke-width="1.6" stroke-opacity="0.8" stroke-dasharray="8,5" fill="none"/>
<text x="928.2" y="363.2" font-size="9" text-anchor="middle" fill="#f5b942" font-family="ui-monospace, Consolas, monospace">CIRC-RAIL-LOOP</text>
<polyline points="640.2,368.0 592.5,372.8 582.2,375.2 499.1,375.2 431.7,375.2 308.6,375.2" stroke="#f5b942" stroke-width="1.6" stroke-opacity="0.8" stroke-dasharray="8,5" fill="none"/>
<text x="308.6" y="368.0" font-size="9" text-anchor="middle" fill="#f5b942" font-family="ui-monospace, Consolas, monospace">CIRC-RAIL-MB-SPUR</text>
<line x1="737.2" y1="365.6" x2="842.8" y2="365.6" stroke="#f5b942" stroke-width="1.8" stroke-opacity="0.9" fill="none"/>
<text x="832.2" y="360.8" font-size="9" text-anchor="middle" fill="#f5b942" font-family="ui-monospace, Consolas, monospace">CIRC-TRAM-PLAZA</text>
<rect x="562.0" y="351.2" width="456.0" height="21.6" stroke="#f5b942" stroke-width="1.6" stroke-opacity="0.8" stroke-dasharray="8,5" fill="#f5b942" fill-opacity="0.12"/>
<text x="926.8" y="346.4" font-size="9" text-anchor="middle" fill="#f5b942" font-family="ui-monospace, Consolas, monospace">CIRC-HOVER-BAND</text>
<circle cx="770.8" cy="380.0" r="4" stroke="#f5b942" stroke-width="1.8" stroke-opacity="0.9" fill="#f5b942" fill-opacity="0.12"/>
<text x="770.8" y="375.2" font-size="9" text-anchor="middle" fill="#f5b942" font-family="ui-monospace, Consolas, monospace">CIRC-MANHOLE</text>
<polyline points="818.8,363.2 818.8,363.2 818.8,363.2" stroke="#f5b942" stroke-width="1.6" stroke-opacity="0.8" stroke-dasharray="8,5" fill="none"/>
<text x="818.8" y="356.0" font-size="9" text-anchor="middle" fill="#f5b942" font-family="ui-monospace, Consolas, monospace">CIRC-ELEVATED-TUBE</text>
<line x1="562.0" y1="384.8" x2="1018.0" y2="384.8" stroke="#c98bff" stroke-width="1.6" stroke-opacity="0.8" stroke-dasharray="8,5" fill="none"/>
<text x="982.0" y="392.0" font-size="9" text-anchor="middle" fill="#c98bff" font-family="ui-monospace, Consolas, monospace">UG-SEWERS</text>
<polygon points="785.2,317.6 794.8,317.6 798.4,380.0 781.6,380.0" stroke="#ff8a65" stroke-width="1.8" stroke-opacity="0.9" fill="#ff8a65" fill-opacity="0.12"/>
<text x="790.0" y="389.6" font-size="9" text-anchor="middle" fill="#ff8a65" font-family="ui-monospace, Consolas, monospace">LM-CENTRAL-MONUMENT</text>
<polygon points="809.2,317.6 818.8,317.6 842.8,380.0 785.2,380.0" stroke="#ff8a65" stroke-width="1.6" stroke-opacity="0.8" stroke-dasharray="8,5" fill="#ff8a65" fill-opacity="0.12"/>
<text x="814.0" y="389.6" font-size="9" text-anchor="middle" fill="#ff8a65" font-family="ui-monospace, Consolas, monospace">LM-SPIRE-CLUSTER</text>
<rect x="823.6" y="332.0" width="24.0" height="48.0" stroke="#ff8a65" stroke-width="1.6" stroke-opacity="0.8" stroke-dasharray="8,5" fill="#ff8a65" fill-opacity="0.12"/>
<text x="835.6" y="326.0" font-size="9" text-anchor="middle" fill="#ff8a65" font-family="ui-monospace, Consolas, monospace">LM-PRESIDENTIAL-BUILDING</text>
<rect x="734.8" y="356.0" width="33.6" height="24.0" stroke="#ff8a65" stroke-width="1.6" stroke-opacity="0.8" stroke-dasharray="8,5" fill="#ff8a65" fill-opacity="0.12"/>
<text x="751.6" y="350.0" font-size="9" text-anchor="middle" fill="#ff8a65" font-family="ui-monospace, Consolas, monospace">LM-PLAZA-DOME-BUILDING</text>
<rect x="749.2" y="356.0" width="24.0" height="24.0" stroke="#ff8a65" stroke-width="1.3" stroke-opacity="0.7" stroke-dasharray="2,4" fill="#ff8a65" fill-opacity="0.12"/>
<text x="761.2" y="350.0" font-size="9" text-anchor="middle" fill="#ff8a65" font-family="ui-monospace, Consolas, monospace">LM-SHADOW-COUNCIL-HALL</text>
<rect x="804.4" y="356.0" width="19.2" height="24.0" stroke="#ff8a65" stroke-width="1.3" stroke-opacity="0.7" stroke-dasharray="2,4" fill="#ff8a65" fill-opacity="0.12"/>
<text x="814.0" y="350.0" font-size="9" text-anchor="middle" fill="#ff8a65" font-family="ui-monospace, Consolas, monospace">LM-COURTHOUSE</text>
<rect x="742.0" y="356.0" width="19.2" height="24.0" stroke="#ff8a65" stroke-width="1.3" stroke-opacity="0.7" stroke-dasharray="2,4" fill="#ff8a65" fill-opacity="0.12"/>
<text x="751.6" y="350.0" font-size="9" text-anchor="middle" fill="#ff8a65" font-family="ui-monospace, Consolas, monospace">LM-MORTY-AGENCY</text>
<rect x="710.8" y="356.0" width="24.0" height="24.0" stroke="#ff8a65" stroke-width="1.6" stroke-opacity="0.8" stroke-dasharray="8,5" fill="#ff8a65" fill-opacity="0.12"/>
<text x="722.8" y="350.0" font-size="9" text-anchor="middle" fill="#ff8a65" font-family="ui-monospace, Consolas, monospace">LM-POLICE-HQ</text>
<rect x="646.0" y="365.6" width="24.0" height="14.4" stroke="#ff8a65" stroke-width="1.6" stroke-opacity="0.8" stroke-dasharray="8,5" fill="#ff8a65" fill-opacity="0.12"/>
<text x="658.0" y="359.6" font-size="9" text-anchor="middle" fill="#ff8a65" font-family="ui-monospace, Consolas, monospace">LM-MORTY-ACADEMY</text>
<rect x="960.4" y="356.0" width="33.6" height="24.0" stroke="#ff8a65" stroke-width="1.6" stroke-opacity="0.8" stroke-dasharray="8,5" fill="#ff8a65" fill-opacity="0.12"/>
<text x="977.2" y="350.0" font-size="9" text-anchor="middle" fill="#ff8a65" font-family="ui-monospace, Consolas, monospace">LM-SIMPLE-RICKS</text>
<rect x="970.0" y="372.8" width="33.6" height="7.2" stroke="#ff8a65" stroke-width="1.6" stroke-opacity="0.8" stroke-dasharray="8,5" fill="none"/>
<rect x="979.6" y="368.0" width="14.4" height="12.0" stroke="#ff8a65" stroke-width="1.6" stroke-opacity="0.8" stroke-dasharray="8,5" fill="#ff8a65" fill-opacity="0.12"/>
<text x="986.8" y="362.0" font-size="9" text-anchor="middle" fill="#ff8a65" font-family="ui-monospace, Consolas, monospace">LM-WISHING-PORTAL</text>
<rect x="996.4" y="365.6" width="19.2" height="14.4" stroke="#ff8a65" stroke-width="1.3" stroke-opacity="0.7" stroke-dasharray="2,4" fill="#ff8a65" fill-opacity="0.12"/>
<text x="1006.0" y="359.6" font-size="9" text-anchor="middle" fill="#ff8a65" font-family="ui-monospace, Consolas, monospace">LM-WASTE-PLANT</text>
<rect x="608.8" y="375.2" width="7.2" height="4.8" stroke="#ff8a65" stroke-width="1.3" stroke-opacity="0.7" stroke-dasharray="2,4" fill="#ff8a65" fill-opacity="0.12"/>
<text x="612.4" y="369.2" font-size="9" text-anchor="middle" fill="#ff8a65" font-family="ui-monospace, Consolas, monospace">LM-MORTY-DAY-CARE</text>
<rect x="700.0" y="372.8" width="7.2" height="7.2" stroke="#ff8a65" stroke-width="1.3" stroke-opacity="0.7" stroke-dasharray="2,4" fill="#ff8a65" fill-opacity="0.12"/>
<text x="703.6" y="366.8" font-size="9" text-anchor="middle" fill="#ff8a65" font-family="ui-monospace, Consolas, monospace">LM-MORTY-GAMES</text>
<rect x="684.4" y="356.0" width="9.6" height="24.0" stroke="#ff8a65" stroke-width="1.3" stroke-opacity="0.7" stroke-dasharray="2,4" fill="#ff8a65" fill-opacity="0.12"/>
<text x="689.2" y="350.0" font-size="9" text-anchor="middle" fill="#ff8a65" font-family="ui-monospace, Consolas, monospace">LM-MORTY-INSURANCE</text>
<rect x="883.6" y="372.8" width="4.8" height="7.2" stroke="#ff8a65" stroke-width="1.3" stroke-opacity="0.7" stroke-dasharray="2,4" fill="#ff8a65" fill-opacity="0.12"/>
<text x="886.0" y="366.8" font-size="9" text-anchor="middle" fill="#ff8a65" font-family="ui-monospace, Consolas, monospace">LM-SALTY-RICK</text>
<rect x="715.6" y="372.8" width="4.8" height="7.2" stroke="#ff8a65" stroke-width="1.3" stroke-opacity="0.7" stroke-dasharray="2,4" fill="#ff8a65" fill-opacity="0.12"/>
<text x="718.0" y="366.8" font-size="9" text-anchor="middle" fill="#ff8a65" font-family="ui-monospace, Consolas, monospace">LM-BIG-RICKS-GUMBO</text>
<rect x="666.4" y="370.4" width="7.2" height="9.6" stroke="#ff8a65" stroke-width="1.3" stroke-opacity="0.7" stroke-dasharray="2,4" fill="#ff8a65" fill-opacity="0.12"/>
<text x="670.0" y="364.4" font-size="9" text-anchor="middle" fill="#ff8a65" font-family="ui-monospace, Consolas, monospace">LM-REBUILD-A-MORTY</text>
<rect x="749.2" y="406.4" width="105.6" height="24.0" rx="18" stroke="#ff5c5c" stroke-width="1.6" stroke-opacity="0.8" stroke-dasharray="8,5" fill="#ff5c5c" fill-opacity="0.12"/>
<text x="802.0" y="437.6" font-size="9" text-anchor="middle" fill="#ff5c5c" font-family="ui-monospace, Consolas, monospace">UG-PORTAL-FLUID</text>
<polygon points="722.8,432.8 857.2,432.8 842.8,466.4 737.2,466.4" stroke="#ff5c5c" stroke-width="1.8" stroke-opacity="0.9" fill="#ff5c5c" fill-opacity="0.12"/>
<text x="790.0" y="476.0" font-size="9" text-anchor="middle" fill="#ff5c5c" font-family="ui-monospace, Consolas, monospace">UG-DIM-DRIVE</text>
<path d="M 778.0,461.6 A 12.0 12.0 0 0 1 802.0,461.6" stroke="#ff5c5c" stroke-width="1.6" stroke-opacity="0.8" stroke-dasharray="8,5" fill="#ff5c5c" fill-opacity="0.12"/>
<text x="790.0" y="442.4" font-size="9" text-anchor="middle" fill="#ff5c5c" font-family="ui-monospace, Consolas, monospace">UG-CONTROL-ENCLOSURE</text>
<rect x="784.0" y="449.6" width="12.0" height="14.4" stroke="#ff5c5c" stroke-width="1.6" stroke-opacity="0.8" stroke-dasharray="8,5" fill="#ff5c5c" fill-opacity="0.12"/>
<rect x="821.4" y="449.6" width="12.0" height="14.4" stroke="#ff5c5c" stroke-width="1.6" stroke-opacity="0.8" stroke-dasharray="8,5" fill="#ff5c5c" fill-opacity="0.12"/>
<rect x="821.4" y="449.6" width="12.0" height="14.4" stroke="#ff5c5c" stroke-width="1.6" stroke-opacity="0.8" stroke-dasharray="8,5" fill="#ff5c5c" fill-opacity="0.12"/>
<rect x="784.0" y="449.6" width="12.0" height="14.4" stroke="#ff5c5c" stroke-width="1.6" stroke-opacity="0.8" stroke-dasharray="8,5" fill="#ff5c5c" fill-opacity="0.12"/>
<rect x="746.6" y="449.6" width="12.0" height="14.4" stroke="#ff5c5c" stroke-width="1.6" stroke-opacity="0.8" stroke-dasharray="8,5" fill="#ff5c5c" fill-opacity="0.12"/>
<rect x="746.6" y="449.6" width="12.0" height="14.4" stroke="#ff5c5c" stroke-width="1.6" stroke-opacity="0.8" stroke-dasharray="8,5" fill="#ff5c5c" fill-opacity="0.12"/>
<text x="790.0" y="471.2" font-size="9" text-anchor="middle" fill="#ff5c5c" font-family="ui-monospace, Consolas, monospace">UG-PHOENIX-VATS</text>
<rect x="772.0" y="473.6" width="21.6" height="38.4" stroke="#ff5c5c" stroke-width="1.8" stroke-opacity="0.9" fill="#ff5c5c" fill-opacity="0.12"/>
<text x="782.8" y="467.6" font-size="9" text-anchor="middle" fill="#ff5c5c" font-family="ui-monospace, Consolas, monospace">UG-LAUNCH-CHAMBER</text>
<polygon points="784.0,512.0 796.0,512.0 794.8,716.0 785.2,716.0" stroke="#ff5c5c" stroke-width="1.8" stroke-opacity="0.9" fill="#ff5c5c" fill-opacity="0.12"/>
<text x="790.0" y="725.6" font-size="9" text-anchor="middle" fill="#ff5c5c" font-family="ui-monospace, Consolas, monospace">UG-EXIT-CHUTE</text>
<rect x="572.6" y="356.0" width="19.2" height="24.0" stroke="#ffd166" stroke-width="1.6" stroke-opacity="0.8" stroke-dasharray="8,5" fill="#ffd166" fill-opacity="0.12"/>
<text x="582.2" y="350.0" font-size="9" text-anchor="middle" fill="#ffd166" font-family="ui-monospace, Consolas, monospace">IF-MORTYBURG</text>
<text x="30" y="750" font-size="12" fill="#fff" font-family="ui-monospace, Consolas, monospace" font-weight="bold">PLACEMENT CLASS (line style)</text>
<line x1="30" y1="762" x2="80" y2="762" stroke="#fff" stroke-width="2.6"/>
<text x="88" y="766" font-size="11" fill="#ddd" font-family="ui-monospace, Consolas, monospace">LOCKED — Existence A and geometry directly supported</text>
<line x1="30" y1="778" x2="80" y2="778" stroke="#fff" stroke-width="1.8"/>
<text x="88" y="782" font-size="11" fill="#ddd" font-family="ui-monospace, Consolas, monospace">ANCHORED — Existence A; position follows from an explicit source relationship (e</text>
<line x1="30" y1="794" x2="80" y2="794" stroke="#fff" stroke-width="1.6" stroke-dasharray="8,5"/>
<text x="88" y="798" font-size="11" fill="#ddd" font-family="ui-monospace, Consolas, monospace">PROVISIONAL — Existence A/B; position is a reasoned inference (C)</text>
<line x1="30" y1="810" x2="80" y2="810" stroke="#fff" stroke-width="1.3" stroke-dasharray="2,4"/>
<text x="88" y="814" font-size="11" fill="#ddd" font-family="ui-monospace, Consolas, monospace">PLACEHOLDER — Existence A/B/C; position is arbitrary (D) and exists only so the node has a slot in the model</text>
<line x1="30" y1="826" x2="80" y2="826" stroke="#fff" stroke-width="1.0" stroke-dasharray="1,3"/>
<text x="88" y="830" font-size="11" fill="#ddd" font-family="ui-monospace, Consolas, monospace">UNPLACED — Not given coordinates</text>
<text x="30" y="854" font-size="12" fill="#fff" font-family="ui-monospace, Consolas, monospace" font-weight="bold">KIND (colour)</text>
<rect x="30" y="862" width="12" height="10" fill="#7a7f8a"/>
<text x="46" y="871" font-size="11" fill="#ddd" font-family="ui-monospace, Consolas, monospace">shell</text>
<rect x="180" y="862" width="12" height="10" fill="#5bc0eb"/>
<text x="196" y="871" font-size="11" fill="#ddd" font-family="ui-monospace, Consolas, monospace">dome</text>
<rect x="330" y="862" width="12" height="10" fill="#f5b942"/>
<text x="346" y="871" font-size="11" fill="#ddd" font-family="ui-monospace, Consolas, monospace">circulation</text>
<rect x="30" y="878" width="12" height="10" fill="#c98bff"/>
<text x="46" y="887" font-size="11" fill="#ddd" font-family="ui-monospace, Consolas, monospace">utility</text>
<rect x="180" y="878" width="12" height="10" fill="#8fd18f"/>
<text x="196" y="887" font-size="11" fill="#ddd" font-family="ui-monospace, Consolas, monospace">district</text>
<rect x="330" y="878" width="12" height="10" fill="#ff8a65"/>
<text x="346" y="887" font-size="11" fill="#ddd" font-family="ui-monospace, Consolas, monospace">landmark</text>
<rect x="30" y="894" width="12" height="10" fill="#ffb199"/>
<text x="46" y="903" font-size="11" fill="#ddd" font-family="ui-monospace, Consolas, monospace">interior</text>
<rect x="180" y="894" width="12" height="10" fill="#4caf50"/>
<text x="196" y="903" font-size="11" fill="#ddd" font-family="ui-monospace, Consolas, monospace">natural</text>
<rect x="330" y="894" width="12" height="10" fill="#ff5c5c"/>
<text x="346" y="903" font-size="11" fill="#ddd" font-family="ui-monospace, Consolas, monospace">machinery</text>
<rect x="30" y="910" width="12" height="10" fill="#ffd166"/>
<text x="46" y="919" font-size="11" fill="#ddd" font-family="ui-monospace, Consolas, monospace">interface</text>
<rect x="180" y="910" width="12" height="10" fill="#a0522d"/>
<text x="196" y="919" font-size="11" fill="#ddd" font-family="ui-monospace, Consolas, monospace">ruin</text>
<rect x="330" y="910" width="12" height="10" fill="#e0e0e0"/>
<text x="346" y="919" font-size="11" fill="#ddd" font-family="ui-monospace, Consolas, monospace">variant</text>
<rect x="30" y="926" width="12" height="10" fill="#bbbbbb"/>
<text x="46" y="935" font-size="11" fill="#ddd" font-family="ui-monospace, Consolas, monospace">prop</text>

<rect x="1230" y="880" width="450" height="100" fill="#0e1218" stroke="#555"/>
<text x="1242" y="904" font-size="16" fill="#fff" font-family="ui-monospace, Consolas, monospace" font-weight="bold">SECTION_B</text>
<text x="1242" y="924" font-size="12" fill="#ccc" font-family="ui-monospace, Consolas, monospace">Section B-B — urban shell and lower machinery (X=0 plane)</text>
<text x="1242" y="942" font-size="11" fill="#aaa" font-family="ui-monospace, Consolas, monospace">State: DS-04   Layers: L0,L1,L2,L4,L7</text>
<text x="1242" y="958" font-size="11" fill="#aaa" font-family="ui-monospace, Consolas, monospace">Units: U = DOME-P radius (absolute scale UNKNOWN)   Built 2026-09-08</text>
<text x="1242" y="972" font-size="10" fill="#888" font-family="ui-monospace, Consolas, monospace">Citadel of Ricks reconstruction — generated from citadel_schematic.json</text>
</svg>